<svg xmlns="http://www.w3.org/2000/svg" xmlns:xlink="http://www.w3.org/1999/xlink" version="1.1" x="0px" y="0px" viewBox="0 0 160 200" style="enable-background:new 0 0 160 160;" xml:space="preserve"><g fill="#ffffff"><path d="M55,23.8c-0.7,1.1-1.6,2.1-2.8,2.8c-0.6,0.4-0.6,1.3,0,1.7c1.1,0.7,2.1,1.6,2.8,2.8c0.4,0.6,1.3,0.6,1.7,0   c0.7-1.1,1.6-2.1,2.8-2.8c0.6-0.4,0.6-1.3,0-1.7c-1.1-0.7-2.1-1.6-2.8-2.8C56.3,23.1,55.4,23.1,55,23.8z"/><path d="M27.1,9.2l-1,2.9c-0.1,0.3-0.3,0.5-0.6,0.6l-2.9,1c-0.9,0.3-0.9,1.6,0,1.9l2.9,1c0.3,0.1,0.5,0.3,0.6,0.6l1,2.9   c0.3,0.9,1.6,0.9,1.9,0l1-2.9c0.1-0.3,0.3-0.5,0.6-0.6l2.9-1c0.9-0.3,0.9-1.6,0-1.9l-2.9-1c-0.3-0.1-0.5-0.3-0.6-0.6l-1-2.9   C28.7,8.3,27.4,8.3,27.1,9.2z"/><path d="M133.7,77.1c-0.7,1.1-1.6,2.1-2.8,2.8c-0.6,0.4-0.6,1.3,0,1.7c1.1,0.7,2.1,1.6,2.8,2.8c0.4,0.6,1.3,0.6,1.7,0   c0.7-1.1,1.6-2.1,2.8-2.8c0.6-0.4,0.6-1.3,0-1.7c-1.1-0.7-2.1-1.6-2.8-2.8C135,76.4,134.1,76.4,133.7,77.1z"/><path d="M116.7,56.3l25.3-9.1l-6.6-18.5l-25.3,9.1c-1.6,0.6-3.1,1.7-4.1,3.1l0,0l5.6,15.7l0,0C113.2,57,115,56.9,116.7,56.3z"/><path d="M65.1,70.5L65.1,70.5c1.8,0.4,3.6,0.4,5.2-0.2l3.5-1.2c1.6,4.6,5.3,7.9,9.6,9.2v-4.5c-2.6-1.1-4.7-3.3-5.7-6.1l19.9-7.1   c0.9,2.7,0.8,5.5-0.4,8.1c-1,2.2-2.7,3.9-4.8,4.9c0,0.1,0,0.1,0,0.2l0,4.3c0,0,0,0,0,0c7.8-2.7,11.9-11.2,9.1-18.9l6.8-2.4   l-4.9-13.8l-38,13.6c-1.6,0.6-3.1,1.7-4.1,3.1l0,0L65,70C65.1,70.2,65.1,70.3,65.1,70.5z"/><path d="M58.8,61.5l-24,8.6c-1.8-1.6-4.2-2.5-6.7-2.5l-1.9-5.3c-0.2-0.5-0.8-0.8-1.3-0.6l-4.5,1.6c-0.5,0.2-0.8,0.8-0.6,1.3   l1.9,5.3c-3.2,2.6-4.6,7-3.1,11.2c0.9,2.5,2.7,4.5,5.2,5.7c1.4,0.7,2.8,1,4.3,1c1.1,0,2.3-0.2,3.4-0.6c3.6-1.3,6-4.4,6.5-7.9   l24-8.6L58.8,61.5z M29.7,82.3c-0.5,0.2-1.1,0.3-1.7,0.3c-0.7,0-1.4-0.2-2.1-0.5c-1.2-0.6-2.1-1.6-2.6-2.8   c-0.4-1.3-0.4-2.6,0.2-3.8c0.6-1.2,1.6-2.1,2.8-2.5s2.6-0.4,3.8,0.2c1.2,0.6,2.1,1.6,2.5,2.8c0.2,0.6,0.3,1.1,0.3,1.7   C33,79.6,31.7,81.5,29.7,82.3z"/><path d="M29.1,75.4c-0.6-0.3-1.3-0.3-1.9-0.1s-1.1,0.7-1.4,1.3c-0.3,0.6-0.3,1.3-0.1,1.9c0.2,0.6,0.7,1.1,1.3,1.4   c0.3,0.2,0.7,0.2,1.1,0.2c0.3,0,0.6-0.1,0.8-0.2c1-0.4,1.6-1.3,1.6-2.3c0-0.3,0-0.6-0.1-0.8C30.2,76.2,29.7,75.7,29.1,75.4z"/><path d="M87.9,72.2L87.9,72.2c-0.8,0-1.5,0.7-1.5,1.5v8H74.3c-0.8,0-1.5,0.7-1.5,1.5v4.6c0,0.8,0.7,1.5,1.5,1.5h27.2   c0.8,0,1.5-0.7,1.5-1.5v-4.6c0-0.8-0.7-1.5-1.5-1.5H89.4v-8C89.4,72.8,88.7,72.2,87.9,72.2z"/><polygon points="121.8,151.5 97.6,92.3 89.5,92.3 113.6,151.5  "/><polygon points="54.1,151.5 62.2,151.5 86.4,92.3 78.2,92.3 54.1,151.5  "/></g></svg>
