<svg xmlns:dc="http://purl.org/dc/elements/1.1/" xmlns:cc="http://creativecommons.org/ns#" xmlns:rdf="http://www.w3.org/1999/02/22-rdf-syntax-ns#" xmlns:svg="http://www.w3.org/2000/svg" xmlns="http://www.w3.org/2000/svg" xmlns:sodipodi="http://sodipodi.sourceforge.net/DTD/sodipodi-0.dtd" xmlns:inkscape="http://www.inkscape.org/namespaces/inkscape" viewBox="0 0 837.50001 557.81245" version="1.1" x="0px" y="0px"><g transform="translate(-139.46128,-425.04095)"><path style="" d="M 348.52238,662.22703 C 233.53878,547.24189 139.46128,452.30947 139.46128,451.26608 c 0,-2.44391 23.82541,-26.22515 26.27386,-26.22515 1.01978,0 89.60279,87.75 196.85114,195 107.24835,107.25 195.56085,195 196.25,195 0.68915,0 89.00165,-87.75 196.25,-195 107.24835,-107.25 195.57072,-195 196.27195,-195 2.0118,0 25.60305,24.20926 25.60305,26.27376 0,1.62238 -417.13514,419.97624 -418.7528,419.97624 -0.34375,0 -94.7025,-94.07875 -209.6861,-209.0639 z" fill="#000000"/></g><text x="0" y="461.24996" fill="#000000" font-size="5px" font-weight="bold" font-family="'Helvetica Neue', Helvetica, Arial-Unicode, Arial, Sans-serif">Created by Hector M</text><text x="0" y="466.24996" fill="#000000" font-size="5px" font-weight="bold" font-family="'Helvetica Neue', Helvetica, Arial-Unicode, Arial, Sans-serif">from the Noun Project</text></svg>