<svg xmlns="http://www.w3.org/2000/svg" data-name="Layer 1" viewBox="0 0 100 125" x="0px" y="0px"><title>Artboard 12</title><path d="M79.28,26.63a.3.3,0,0,0,0-.07.28.28,0,0,0-.48-.19l-7,7a20.24,20.24,0,0,0-6,13q0,.5,0,1v.87a37.51,37.51,0,0,1,1.67,5.15H54.79a32.93,32.93,0,0,0-5.43-15.13,26.88,26.88,0,0,1-7.74,5.77,22.21,22.21,0,0,1-6.34,2.06c-9.9,1.51-22.3-5-28.35-41.61A1.86,1.86,0,0,1,8.48,2.43h0C55.92-4.26,58.68,14.13,56.33,25.28a51.47,51.47,0,0,0-19.69-6.14h-.11a.43.43,0,0,0-.18.76L47.93,28.4h0l5.84,4.31a37.3,37.3,0,0,1,6.08,5.85,24.83,24.83,0,0,1,5-6.15,17.69,17.69,0,0,1-2.54-5A14.75,14.75,0,0,1,61.66,23c0-6.65,5.53-14.14,30.18-14.44a1.23,1.23,0,0,1,1.24,1.23h0c-.38,31.82-12.74,31.78-19.82,29.12A34.2,34.2,0,0,0,79.28,26.63ZM28.65,93H63.28a16.16,16.16,0,0,0,12.18-5.54L97.14,62.67a6.79,6.79,0,0,0-.79-9.7,6.55,6.55,0,0,0-4.2-1.49,7.24,7.24,0,0,0-5.38,2.43L76.57,65.26c0,.05,0,.1,0,.16A11.85,11.85,0,0,1,64.68,76.68H52.21a2.54,2.54,0,1,1,0-5.08H64.68a6.72,6.72,0,0,0,6.81-6.34A6.54,6.54,0,0,0,65,58.52H44.19l-3.37-1.18a23.42,23.42,0,0,0-24.26,5.49L1.19,78.1,22.64,99Z"/><text x="0" y="115" fill="#000000" font-size="5px" font-weight="bold" font-family="'Helvetica Neue', Helvetica, Arial-Unicode, Arial, Sans-serif">Created by Gregor Cresnar</text><text x="0" y="120" fill="#000000" font-size="5px" font-weight="bold" font-family="'Helvetica Neue', Helvetica, Arial-Unicode, Arial, Sans-serif">from the Noun Project</text></svg>